<?xml version="1.0" encoding="utf-8"?>
<svg viewBox="14 32.477 484.727 424.136" xmlns="http://www.w3.org/2000/svg">
  <path d="M 371.77 102.44 L 488.029 218.699 C 494.846 225.516 498.727 234.888 498.727 244.545 C 498.727 254.202 494.846 263.574 488.029 270.391 L 371.77 386.649 C 365.711 392.709 357.569 396.022 349.049 396.022 C 331.345 396.022 316.955 381.632 316.955 363.928 L 316.955 305.136 L 195.773 305.136 C 179.016 305.136 165.477 291.597 165.477 274.84 L 165.477 214.249 C 165.477 197.492 179.016 183.954 195.773 183.954 L 316.955 183.954 L 316.955 125.162 C 316.955 107.458 331.345 93.068 349.049 93.068 C 357.569 93.068 365.711 96.476 371.77 102.44 Z M 165.477 93.068 L 104.886 93.068 C 88.129 93.068 74.591 106.606 74.591 123.363 L 74.591 365.727 C 74.591 382.484 88.129 396.022 104.886 396.022 L 165.477 396.022 C 182.234 396.022 195.773 409.56 195.773 426.318 C 195.773 443.075 182.234 456.613 165.477 456.613 L 104.886 456.613 C 54.71 456.613 14 415.904 14 365.727 L 14 123.363 C 14 73.186 54.71 32.477 104.886 32.477 L 165.477 32.477 C 182.234 32.477 195.773 46.015 195.773 62.772 C 195.773 79.529 182.234 93.068 165.477 93.068 Z" style="fill: rgb(96, 174, 212);"/>
</svg>